# xmcd
#
# Track frame offsets: 
#        150
#        14897
#        31147
#        54350
#        67975
#        82852
#        100065
#        124047
#        146062
#        162680
#        176212
#        191895
#        213095
#        232465
#        248760
#        265920
#        278907
#
# Disc length: 4231 seconds
#
# Revision: 0
# Processed by: cddbd v1.5.2PL0 Copyright (c) Steve Scherf et al.
# Submitted via: ExactAudioCopy v0.99pb5
#
DISCID=fc108511
DTITLE=The Chi-Lites - Too Good To Be Forgotten [Disc 1]
DYEAR=1998
DGENRE=R&B
TTITLE0=Too Good To Be Forgotten
TTITLE1=Oh Girl
TTITLE2=Have You Seen Her
TTITLE3=I Found Sunshine
TTITLE4=I Like Your Lovin' (Do You Like Mine?)
TTITLE5=(For God's Sake) Give More Power To The People
TTITLE6=We Need Order
TTITLE7=There Will Never Be Any Peace (Until God Is Seated At The Conf
TTITLE7=erence Table)
TTITLE8=We Are Neighbours
TTITLE9=Stoned Out Of My Mind
TTITLE10=Homely Girl
TTITLE11=You Don't Have To Go
TTITLE12=Yes I'm Ready (If I Don't Get To Go)
TTITLE13=The Devil Is Doing His Work
TTITLE14=Toby
TTITLE15=Half A Love
TTITLE16=The Coldest Days Of My Life
EXTD=
EXTT0=
EXTT1=
EXTT2=
EXTT3=
EXTT4=
EXTT5=
EXTT6=
EXTT7=
EXTT8=
EXTT9=
EXTT10=
EXTT11=
EXTT12=
EXTT13=
EXTT14=
EXTT15=
EXTT16=
PLAYORDER=
